<?xml version="1.0" encoding="UTF-8"?>
<svg width="12px" height="12px" viewBox="0 0 12 12" version="1.1" xmlns="http://www.w3.org/2000/svg" xmlns:xlink="http://www.w3.org/1999/xlink">
    <g id="Application" stroke="none" stroke-width="1" fill="none" fill-rule="evenodd">
        <g id="Inbox" transform="translate(-55.000000, -204.000000)" fill="#FFFFFF" fill-rule="nonzero">
            <path d="M61,215.99952 C57.68608,215.99952 55,213.31344 55,209.99952 C55,206.6856 57.68608,204 61,204 C64.31344,204 67,206.6856 67,209.99952 C67,213.31344 64.31344,215.99952 61,215.99952 Z M61,204.47952 C57.95104,204.47952 55.48,206.95056 55.48,209.99952 C55.48,213.048 57.95104,215.51952 61,215.51952 C64.04848,215.51952 66.52,213.048 66.52,209.99952 C66.52,206.95104 64.04848,204.47952 61,204.47952 Z M64.36,210.24048 L62.17552,210.24048 C62.06416,210.78768 61.57984,211.19952 61,211.19952 C60.33712,211.19952 59.8,210.66288 59.8,210 C59.8,209.41872 60.21232,208.93488 60.76,208.824 L60.76,205.68048 C60.76,205.548 60.86752,205.44048 61,205.44048 C61.13248,205.44048 61.24,205.548 61.24,205.68048 L61.24,208.824 C61.70992,208.91904 62.07856,209.29056 62.17408,209.76096 L64.36,209.76096 C64.49248,209.76096 64.6,209.868 64.6,210.00048 C64.6,210.13344 64.49248,210.24048 64.36,210.24048 Z M61,209.27952 C60.60208,209.27952 60.28,209.60208 60.28,209.99952 C60.28,210.39696 60.60208,210.71952 61,210.71952 C61.39744,210.71952 61.72,210.39696 61.72,209.99952 C61.72,209.60208 61.39744,209.27952 61,209.27952 Z" id="Shape"></path>
        </g>
    </g>
</svg>