<?xml version="1.0" encoding="UTF-8"?>
<svg width="21px" height="25px" viewBox="0 0 21 25" version="1.1" xmlns="http://www.w3.org/2000/svg" xmlns:xlink="http://www.w3.org/1999/xlink">
    <!-- Generator: Sketch 56.3 (81716) - https://sketch.com -->
    <title>Shape 2</title>
    <desc>Created with Sketch.</desc>
    <g id="Launch" stroke="none" stroke-width="1" fill="none" fill-rule="evenodd">
        <g id="Launch---QR" transform="translate(-82.000000, -331.000000)" fill="#FFFFFF" fill-rule="nonzero">
            <g id="Group-4" transform="translate(54.000000, 316.000000)">
                <g id="Shape-2" transform="translate(28.000000, 15.000000)">
                    <path d="M0,24.9927221 L0,23.9927221 L21,23.9927221 L21,24.9927221 L0,24.9927221 Z M18.107,9.82572214 L11,1.82572214 L11,19.4927221 C11,19.7687221 10.776,19.9927221 10.5,19.9927221 C10.224,19.9927221 10,19.7687221 10,19.4927221 L10,1.82572214 L2.892,9.82572214 C2.692,10.0267221 2.368,10.0267221 2.167,9.82572214 C1.967,9.62572214 1.967,9.30072214 2.167,9.10072214 L10.127,0.142722142 C10.13,0.138722142 10.131,0.132722142 10.135,0.128722142 C10.154,0.109722142 10.182,0.115722142 10.203,0.100722142 C10.268,0.0527221416 10.343,0.0207221416 10.427,0.00772214165 L10.431,0.00772214165 C10.586,-0.0152778584 10.744,0.00972214165 10.863,0.128722142 C10.869,0.134722142 10.87,0.141722142 10.875,0.146722142 L18.831,9.10172214 C19.031,9.30172214 19.031,9.62572214 18.831,9.82672214 C18.632,10.0257221 18.308,10.0257221 18.107,9.82572214 Z" id="Shape"></path>
                </g>
            </g>
        </g>
    </g>
</svg>