<?xml version="1.0" encoding="UTF-8"?>
<svg width="25px" height="23px" viewBox="0 0 25 23" version="1.1" xmlns="http://www.w3.org/2000/svg" xmlns:xlink="http://www.w3.org/1999/xlink">
    <!-- Generator: Sketch 56.3 (81716) - https://sketch.com -->
    <title>Shape 3</title>
    <desc>Created with Sketch.</desc>
    <g id="Launch" stroke="none" stroke-width="1" fill="none" fill-rule="evenodd">
        <g id="Launch---QR" transform="translate(-80.000000, -249.000000)" fill="#FFFFFF" fill-rule="nonzero">
            <g id="Group-5" transform="translate(54.000000, 233.000000)">
                <g id="Shape-3" transform="translate(26.000000, 16.000000)">
                    <path d="M23.438,23 L1.563,23 C0.7,23 -5.86197757e-14,22.29 -5.86197757e-14,21.416 L-5.86197757e-14,5.583 C-5.86197757e-14,4.708 0.699,4 1.563,4 L5.572,4 L6.601,1.75 C6.601,1.75 7.317,-1.77635684e-15 8.201,-1.77635684e-15 L16.801,-1.77635684e-15 C17.685,-1.77635684e-15 18.401,1.75 18.401,1.75 L19.43,4 L23.439,4 C24.302,4 25.002,4.709 25.002,5.583 L25.002,21.416 C25,22.29 24.301,23 23.438,23 Z M17.49,2.165 C17.282,1.665 16.927,1.127 16.733,0.999 L8.266,0.999 C8.072,1.128 7.711,1.672 7.524,2.128 L6.67,3.999 L18.328,3.999 L17.49,2.165 Z M24,5.583 C24,5.262 23.748,5 23.437,5 L1.562,5 C1.251,5 0.999,5.263 0.999,5.583 L0.999,21.416 C0.999,21.737 1.251,22 1.562,22 L23.437,22 C23.747,22 24,21.737 24,21.416 L24,5.583 Z M12.5,19.998 C8.91,19.998 6,17.087 6,13.498 C6,9.909 8.91,6.998 12.5,6.998 C16.09,6.998 19,9.908 19,13.498 C19,17.088 16.09,19.998 12.5,19.998 Z M12.5,7.997 C9.463,7.997 7,10.459 7,13.497 C7,16.535 9.463,18.997 12.5,18.997 C15.538,18.997 18,16.535 18,13.497 C18,10.459 15.538,7.997 12.5,7.997 Z" id="Shape"></path>
                </g>
            </g>
        </g>
    </g>
</svg>