<?xml version="1.0" encoding="UTF-8"?>
<svg width="25px" height="25px" viewBox="0 0 25 25" version="1.1" xmlns="http://www.w3.org/2000/svg" xmlns:xlink="http://www.w3.org/1999/xlink">
    <!-- Generator: Sketch 56.3 (81716) - https://sketch.com -->
    <title>Shape</title>
    <desc>Created with Sketch.</desc>
    <defs>
        <linearGradient x1="50%" y1="0%" x2="50%" y2="100%" id="linearGradient-1">
            <stop stop-color="#4141F2" offset="0%"></stop>
            <stop stop-color="#2B2BD9" offset="100%"></stop>
        </linearGradient>
    </defs>
    <g id="Application" stroke="none" stroke-width="1" fill="none" fill-rule="evenodd">
        <g id="Inbox" transform="translate(-15.000000, -16.000000)" fill="url(#linearGradient-1)" fill-rule="nonzero">
            <g id="Nav-Bar" transform="translate(0.000000, -1.000000)">
                <path d="M38.373,32.401 L35.599,32.856 L37.239,35.139 C37.874,35.774 37.881,36.795 37.257,37.42 L35.418,39.259 C34.793,39.884 33.772,39.876 33.138,39.241 L30.855,37.601 L30.4,40.375 C30.4,41.273 29.682,42 28.799,42 L26.198,42 C25.315,42 24.598,41.273 24.598,40.375 L24.143,37.6 L21.859,39.241 C21.224,39.876 20.204,39.884 19.579,39.259 L17.741,37.42 C17.117,36.795 17.124,35.774 17.759,35.139 L19.398,32.856 L16.625,32.401 C15.727,32.401 15,31.685 15,30.801 L15,28.2 C15,27.318 15.727,26.6 16.625,26.6 L19.399,26.145 L17.759,23.861 C17.124,23.226 17.116,22.205 17.741,21.581 L19.579,19.742 C20.204,19.118 21.225,19.125 21.86,19.759 L24.143,21.399 L24.598,18.625 C24.598,17.727 25.315,17 26.198,17 L28.799,17 C29.682,17 30.4,17.727 30.4,18.625 L30.855,21.399 L33.138,19.759 C33.773,19.125 34.794,19.118 35.418,19.742 L37.257,21.581 C37.882,22.205 37.874,23.226 37.239,23.861 L35.599,26.145 L38.373,26.6 C39.27,26.6 39.998,27.318 39.998,28.2 L39.998,30.801 C39.998,31.686 39.27,32.401 38.373,32.401 Z M27.498,33.999 C29.982,33.999 31.998,31.983 31.998,29.499 C31.998,27.014 29.982,24.999 27.498,24.999 C25.013,24.999 22.998,27.014 22.998,29.499 C22.998,31.983 25.013,33.999 27.498,33.999 Z" id="Shape"></path>
            </g>
        </g>
    </g>
</svg>