<?xml version="1.0" encoding="UTF-8"?>
<svg width="100px" height="113px" viewBox="0 0 100 113" version="1.1" xmlns="http://www.w3.org/2000/svg" xmlns:xlink="http://www.w3.org/1999/xlink">
    <g stroke="none" stroke-width="1" fill="none" fill-rule="evenodd">
        <g class="group" fill="#F2F2F2" fill-rule="nonzero">
            <polygon class="top" points="24.9999995 45 18.8128159 28.0742763 0 22.5046577 18.8128159 16.935039 24.9999995 0 31.1871841 16.935039 50 22.5046577 31.1871841 28.0742763"></polygon>
            <polygon class="right" points="74.9999995 67.5 68.8128159 50.5742763 50 45.0046577 68.8128159 39.435039 74.9999995 22.5 81.1871841 39.435039 100 45.0046577 81.1871841 50.5742763"></polygon>
            <polygon class="bottom" points="74.9999995 112.5 68.8128159 95.5742763 50 90.0046577 68.8128159 84.435039 74.9999995 67.5 81.1871841 84.435039 100 90.0046577 81.1871841 95.5742763"></polygon>
            <polygon class="left" points="24.9999995 90 18.8128159 73.0742763 0 67.5046577 18.8128159 61.935039 24.9999995 45 31.1871841 61.935039 50 67.5046577 31.1871841 73.0742763"></polygon>
        </g>
    </g>
</svg>