<?xml version="1.0" encoding="UTF-8"?>
<svg width="52px" height="52px" viewBox="0 0 52 52" version="1.1" xmlns="http://www.w3.org/2000/svg" xmlns:xlink="http://www.w3.org/1999/xlink">
    <!-- Generator: Sketch 56.3 (81716) - https://sketch.com -->
    <title>Shape</title>
    <desc>Created with Sketch.</desc>
    <g id="Launch" stroke="none" stroke-width="1" fill="none" fill-rule="evenodd">
        <g id="Launch---Save-QR-Code" transform="translate(-162.000000, -308.000000)" fill="#F2F2F2" fill-rule="nonzero" stroke="#F2F2F2">
            <path d="M212.707696,358.7117 C212.323296,359.0961 211.694642,359.0961 211.308241,358.7117 L198.150557,345.554016 C194.416673,348.95155 189.469528,351.041723 184.021863,351.041723 C172.411788,351.041723 163,341.631937 163,330.019861 C163,318.409786 172.411788,309 184.021863,309 C195.631937,309 205.043725,318.409786 205.043725,330.019861 C205.043725,335.469528 202.95155,340.418675 199.550012,344.154561 L212.707696,357.312245 C213.094098,357.698647 213.094098,358.325298 212.707696,358.7117 Z M203.041643,330.019861 C203.041643,319.516938 194.524786,311.002082 184.021863,311.002082 C173.516938,311.002082 165.00008,319.516938 165.00008,330.019861 C165.00008,340.524786 173.516938,349.041643 184.021863,349.041643 C194.524786,349.041643 203.041643,340.524786 203.041643,330.019861 Z M194.032274,331.024906 L185.022904,331.024906 L185.022904,340.036278 C185.022904,340.58685 184.572435,341.037319 184.021863,341.037319 C183.469288,341.037319 183.020822,340.58685 183.020822,340.036278 L183.020822,331.024906 L174.011452,331.024906 C173.458877,331.024906 173.010411,330.576439 173.010411,330.023865 C173.010411,329.47129 173.458877,329.022824 174.011452,329.022824 L183.020822,329.022824 L183.020822,320.011452 C183.020822,319.462881 183.469288,319.014415 184.021863,319.014415 C184.572435,319.014415 185.022904,319.462881 185.022904,320.011452 L185.022904,329.022824 L194.032274,329.022824 C194.582846,329.022824 195.033315,329.47129 195.033315,330.023865 C195.033315,330.576439 194.582846,331.024906 194.032274,331.024906 Z" id="Shape"></path>
        </g>
    </g>
</svg>